<svg width="569" height="732" viewBox="0 0 569 732" fill="none" xmlns="http://www.w3.org/2000/svg">
<g clip-path="url(#clip0_3_12)">
<g filter="url(#filter0_f_3_12)">
<path fill-rule="evenodd" clip-rule="evenodd" d="M148.356 604.525C159.863 594.293 163.915 575.084 178.685 570.734C193.245 566.445 208.24 576.002 221.755 582.908C235.066 589.709 250.768 596.451 256.241 610.361C261.713 624.271 253.148 639.407 249.709 653.953C247.165 664.71 241.238 673.872 238.683 684.626C235.243 699.108 243.557 718.507 232.112 728.024C221.076 737.201 203.957 728.01 189.88 725.209C178.735 722.992 167.825 719.915 158.525 713.384C150.053 707.434 146.789 696.813 139.287 689.679C129.178 680.066 111.504 677.473 106.911 664.302C102.449 651.51 109.231 636.767 116.95 625.634C124.262 615.089 138.767 613.053 148.356 604.525Z" fill="#3AFFFF" fill-opacity="0.43"/>
<path fill-rule="evenodd" clip-rule="evenodd" d="M315.778 281.395C291.807 260.603 277.907 234.374 269.085 203.893C257.523 163.947 235.808 120.151 259.145 85.73C285.052 47.519 336.078 30.872 381.728 37.749C424.433 44.182 460.751 77.444 474.929 118.237C486.369 151.155 449.349 177.974 442.328 212.109C433.07 257.12 469.12 320.374 428.813 342.442C389.295 364.078 349.811 310.916 315.778 281.395Z" fill="#FC23CC" fill-opacity="0.24"/>
<path fill-rule="evenodd" clip-rule="evenodd" d="M294.092 608.526C277.733 589.105 295.165 557.137 283.332 534.669C271.206 511.645 231.432 508.02 227.604 482.281C223.983 457.928 245.175 433.603 266.461 421.232C286.446 409.618 312.267 426.91 334.392 420.221C355.237 413.919 365.914 382.436 387.581 384.617C408.51 386.723 418.971 411.764 429.762 429.819C438.854 445.03 436.722 463.847 444.464 479.788C456.272 504.1 488.229 520.081 486.708 547.066C485.246 573.012 458.59 590.365 437.386 605.388C416.14 620.441 391.914 632.101 365.883 632.671C340.12 633.235 310.694 628.235 294.092 608.526Z" fill="#125FA6"/>
<path fill-rule="evenodd" clip-rule="evenodd" d="M86.13 427.422C78.2472 416.847 66.1556 410.994 57.73 400.846C47.8349 388.928 33.3543 378.254 32.4662 362.79C31.5787 347.335 42.7419 333.53 53.2095 322.126C62.5582 311.941 78.9002 311.669 88.51 301.73C103.576 286.148 105.313 259.341 124.199 248.706C145.028 236.978 171.973 233.791 194.381 242.114C217.464 250.689 236.122 270.951 245.441 293.744C254.442 315.759 245.605 340.129 244.162 363.869C242.802 386.243 255.851 417.19 237.185 429.599C214.44 444.721 181.305 409.303 157.02 421.802C134.473 433.407 148.255 486.378 122.976 488.382C98.896 490.291 100.565 446.789 86.13 427.422Z" fill="#DA2130" fill-opacity="0.47"/>
</g>
</g>
<defs>
<filter id="filter0_f_3_12" x="-152.675" y="-148.857" width="824.528" height="1065.95" filterUnits="userSpaceOnUse" color-interpolation-filters="sRGB">
<feFlood flood-opacity="0" result="BackgroundImageFix"/>
<feBlend mode="normal" in="SourceGraphic" in2="BackgroundImageFix" result="shape"/>
<feGaussianBlur stdDeviation="92.5459" result="effect1_foregroundBlur_3_12"/>
</filter>
<clipPath id="clip0_3_12">
<rect width="569" height="732" fill="white"/>
</clipPath>
</defs>
</svg>
