<svg width="414" height="1920" viewBox="0 0 414 1920" fill="none" xmlns="http://www.w3.org/2000/svg">
<g clip-path="url(#clip0_2_2)">
<mask id="mask0_2_2" style="mask-type:luminance" maskUnits="userSpaceOnUse" x="0" y="0" width="414" height="1924">
<path d="M414 0H0V1924H414V0Z" fill="white"/>
</mask>
<g mask="url(#mask0_2_2)">
<g opacity="0.6" filter="url(#filter0_f_2_2)">
<path fill-rule="evenodd" clip-rule="evenodd" d="M432.478 201.139C479.554 190.073 503.731 262.641 544.566 288.548C585.751 314.678 658.88 306.522 672.432 353.377C686.737 402.834 615.98 437.776 602.064 487.343C590.897 527.115 629.593 579.198 600.732 608.753C571.325 638.868 516.135 599.266 477.186 615.224C430.513 634.348 411.099 703.262 360.804 707.06C311.565 710.777 251.428 680.268 235.715 633.456C218.649 582.609 293.202 537.169 285.944 484.029C278.78 431.57 177.016 404.482 197.792 355.783C218.288 307.739 306.194 363.066 349.81 334.326C394.343 304.981 380.56 213.343 432.478 201.139Z" fill="#FCFF58" fill-opacity="0.21"/>
<path fill-rule="evenodd" clip-rule="evenodd" d="M19.2449 -299.889C15.8068 -211.238 79.4205 -117.704 38.5147 -38.9791C-1.80657 38.6219 -101.376 62.754 -184.029 91.322C-265.428 119.458 -356.133 157.76 -435.765 124.954C-515.397 92.148 -544.069 -3.86907 -590.762 -76.2377C-625.291 -129.752 -639.682 -190.962 -674.153 -244.513C-720.57 -316.625 -834.352 -359.548 -828.187 -445.086C-822.243 -527.573 -715.709 -561.984 -647.866 -609.279C-594.155 -646.722 -537.813 -679.756 -473.553 -692.309C-415.007 -703.745 -357.855 -674.893 -298.263 -677.571C-217.968 -681.179 -136.631 -744.243 -63.5733 -710.732C7.37598 -678.189 41.5375 -591.152 56.962 -514.634C71.5724 -442.155 22.1103 -373.771 19.2449 -299.889Z" fill="#3AFFFF" fill-opacity="0.18"/>
<path fill-rule="evenodd" clip-rule="evenodd" d="M264.946 -76.7354C320.218 -57.0436 322.698 27.0989 372.489 58.1509C423.515 89.9719 507.09 50.8269 544.724 97.7449C580.332 142.135 566.402 215.405 538.352 264.924C512.018 311.413 440.352 307.005 404.006 346.158C369.764 383.046 385.154 458.345 339.386 479.259C295.176 499.461 245.124 461.672 202.551 438.214C166.685 418.451 149.009 378.401 114.985 355.609C63.0927 320.847 -19.2882 326.211 -47.7042 270.57C-75.0256 217.071 -42.0697 151.346 -17.2751 96.6289C7.56816 41.8049 42.3101 -9.72307 93.5801 -41.2171C144.321 -72.3865 208.855 -96.7191 264.946 -76.7354Z" fill="#32EBE0" fill-opacity="0.16"/>
<path fill-rule="evenodd" clip-rule="evenodd" d="M320.082 972.82C298.082 1007.05 294.283 1048.32 274.106 1083.65C250.41 1125.15 235.276 1178.55 191.572 1197.87C147.897 1217.19 95.9259 1199.91 51.6413 1182.04C12.0902 1166.07 -6.40709 1119.17 -45.5303 1102.18C-106.865 1075.56 -186.173 1099.6 -237.359 1056.58C-293.811 1009.13 -332.222 934.76 -332.468 861.02C-332.722 785.054 -294.423 709.201 -238.693 657.581C-184.863 607.72 -104.897 606.832 -34.7644 585.266C31.3307 564.943 106.57 493.711 162.644 534.174C230.972 583.48 164.59 717.571 227.014 774.165C284.971 826.709 423.027 729.487 456.215 800.327C487.828 867.81 360.374 910.14 320.082 972.82Z" fill="#DA2130" fill-opacity="0.26"/>
<path fill-rule="evenodd" clip-rule="evenodd" d="M767.691 1484.58C729.329 1552.88 618.103 1537.19 566.036 1595.71C512.678 1655.69 545.319 1774.5 475.126 1813.45C408.714 1850.31 315.487 1815.47 256.684 1767.39C201.479 1722.26 223.435 1628.94 180.135 1572.29C139.341 1518.91 36.8345 1522.2 19.6479 1457.25C3.04668 1394.52 64.0327 1337.17 104.485 1286.43C138.565 1243.68 195.225 1229.45 232.873 1189.81C290.294 1129.35 301.814 1019.73 381.403 994.87C457.926 970.97 536.939 1029.15 603.313 1074.11C669.818 1119.16 729.754 1176.49 759.616 1251.06C789.17 1324.86 806.621 1415.27 767.691 1484.58Z" fill="#125FA6" fill-opacity="0.08"/>
</g>
</g>
</g>
<defs>
<filter id="filter0_f_2_2" x="-979.933" y="-872.017" width="1921.63" height="2852.38" filterUnits="userSpaceOnUse" color-interpolation-filters="sRGB">
<feFlood flood-opacity="0" result="BackgroundImageFix"/>
<feBlend mode="normal" in="SourceGraphic" in2="BackgroundImageFix" result="shape"/>
<feGaussianBlur stdDeviation="75.7525" result="effect1_foregroundBlur_2_2"/>
</filter>
<clipPath id="clip0_2_2">
<rect width="414" height="1920" fill="white"/>
</clipPath>
</defs>
</svg>
